<svg width="256" height="256" viewBox="0 0 256 256" fill="none" xmlns="http://www.w3.org/2000/svg">
<g clip-path="url(#clip0_3_8)">
<rect width="256" height="256" fill="white"/>
<path d="M66.848 177.008C66.784 176.688 66.56 176.176 66.176 175.472C65.856 174.768 65.504 174.064 65.12 173.36C64.8 172.72 64.544 172.272 64.352 172.016C69.728 170.672 74.272 169.104 77.984 167.312C81.696 165.456 84.704 163.088 87.008 160.208C85.024 158.544 83.136 156.784 81.344 154.928C79.616 153.072 78.016 151.12 76.544 149.072L81.056 146C82.272 147.728 83.616 149.392 85.088 150.992C86.624 152.528 88.256 154.032 89.984 155.504C91.52 152.24 92.48 148.24 92.864 143.504H73.856V109.904H93.152V99.632H69.248V94.256H123.584V99.632H99.008V109.904H118.88V143.504H98.72C98.144 149.52 96.736 154.672 94.496 158.96C99.04 162.096 103.968 164.688 109.28 166.736C114.592 168.784 119.744 170.16 124.736 170.864C124.608 171.12 124.352 171.6 123.968 172.304C123.648 173.072 123.328 173.808 123.008 174.512C122.688 175.28 122.464 175.824 122.336 176.144C117.152 175.248 111.872 173.744 106.496 171.632C101.184 169.52 96.16 166.832 91.424 163.568C88.8 166.768 85.44 169.424 81.344 171.536C77.312 173.712 72.48 175.536 66.848 177.008ZM51.296 177.008V130.736C49.632 134.704 47.744 138.576 45.632 142.352C43.52 146.128 41.408 149.424 39.296 152.24C39.04 152.048 38.56 151.76 37.856 151.376C37.216 150.928 36.544 150.512 35.84 150.128C35.2 149.68 34.72 149.392 34.4 149.264C36.128 147.344 37.856 145.04 39.584 142.352C41.312 139.6 42.944 136.72 44.48 133.712C46.016 130.704 47.36 127.76 48.512 124.88C49.728 122 50.656 119.44 51.296 117.2V116.624H36.704V111.44H51.296V90.224H56.96V111.44H69.152V116.624H56.96V123.824C57.984 125.296 59.264 126.992 60.8 128.912C62.4 130.832 64.032 132.688 65.696 134.48C67.36 136.208 68.864 137.648 70.208 138.8C70.016 138.928 69.632 139.28 69.056 139.856C68.48 140.432 67.904 141.008 67.328 141.584C66.816 142.096 66.496 142.448 66.368 142.64C64.96 141.36 63.392 139.696 61.664 137.648C60 135.536 58.432 133.424 56.96 131.312V177.008H51.296ZM98.912 138.512H112.928V128.912H99.008V137.072C99.008 137.328 99.008 137.584 99.008 137.84C99.008 138.032 98.976 138.256 98.912 138.512ZM99.008 124.304H112.928V114.896H99.008V124.304ZM79.712 138.512H93.152V128.912H79.712V138.512ZM79.712 124.304H93.152V114.896H79.712V124.304ZM177.728 176.432C177.664 176.24 177.344 175.824 176.768 175.184C176.256 174.544 175.712 173.904 175.136 173.264C174.624 172.688 174.24 172.304 173.984 172.112C181.408 167.568 187.36 161.936 191.84 155.216C196.32 148.496 199.584 140.816 201.632 132.176H186.368V126.704H192.512V99.92H187.04V94.544H217.664V99.92H209.792V103.28C209.792 107.568 209.632 111.664 209.312 115.568C209.056 119.472 208.608 123.184 207.968 126.704H219.008V132.176H206.912C206.592 133.776 206.208 135.344 205.76 136.88C205.376 138.352 204.928 139.824 204.416 141.296H206.528V166.544C206.528 168.272 207.808 169.136 210.368 169.136C211.776 169.136 212.928 168.848 213.824 168.272C214.72 167.696 215.424 166.544 215.936 164.816C216.512 163.024 216.96 160.4 217.28 156.944C218.688 157.776 220.256 158.416 221.984 158.864C221.6 163.024 220.992 166.256 220.16 168.56C219.328 170.8 218.208 172.336 216.8 173.168C215.456 174.064 213.76 174.512 211.712 174.512H209.12C206.56 174.512 204.608 174.128 203.264 173.36C201.984 172.656 201.344 171.216 201.344 169.04V148.784C198.656 154.544 195.328 159.664 191.36 164.144C187.392 168.624 182.848 172.72 177.728 176.432ZM158.624 169.328L156.032 164.24C156.928 163.792 158.016 163.248 159.296 162.608C160.64 161.968 162.048 161.232 163.52 160.4V94.064H184.352V133.904H168.608V157.616C170.656 156.464 172.64 155.312 174.56 154.16C176.48 153.008 178.144 151.984 179.552 151.088C178.72 149.808 177.888 148.528 177.056 147.248C176.224 145.904 175.36 144.624 174.464 143.408L178.784 140.816C180.64 143.504 182.464 146.224 184.256 148.976C186.048 151.728 187.712 154.544 189.248 157.424L184.928 160.592C184.48 159.696 184 158.832 183.488 158C183.04 157.104 182.56 156.208 182.048 155.312C180.064 156.656 177.6 158.224 174.656 160.016C171.776 161.808 168.896 163.536 166.016 165.2C163.136 166.864 160.672 168.24 158.624 169.328ZM145.952 177.008V129.008C144.416 132.912 142.688 136.784 140.768 140.624C138.848 144.4 136.864 147.728 134.816 150.608C134.56 150.416 134.08 150.128 133.376 149.744C132.736 149.296 132.064 148.88 131.36 148.496C130.656 148.112 130.176 147.856 129.92 147.728C131.456 145.808 133.024 143.44 134.624 140.624C136.288 137.744 137.824 134.736 139.232 131.6C140.704 128.4 142.016 125.296 143.168 122.288C144.32 119.28 145.184 116.624 145.76 114.32H131.936V109.04H145.952V90.032H151.328V109.04H160.64V114.32H151.328V123.92C152.288 125.392 153.408 127.056 154.688 128.912C156.032 130.704 157.44 132.464 158.912 134.192C160.384 135.856 161.76 137.296 163.04 138.512C162.848 138.64 162.432 138.992 161.792 139.568C161.216 140.144 160.64 140.72 160.064 141.296C159.488 141.808 159.104 142.16 158.912 142.352C157.696 141.072 156.416 139.536 155.072 137.744C153.728 135.952 152.48 134.16 151.328 132.368V177.008H145.952ZM197.312 126.704H202.784C203.424 123.12 203.872 119.376 204.128 115.472C204.448 111.504 204.608 107.44 204.608 103.28V99.92H197.312V126.704ZM168.608 128.528H179.36V116.144H168.608V128.528ZM168.608 111.152H179.36V99.344H168.608V111.152Z" fill="black"/>
</g>
<defs>
<clipPath id="clip0_3_8">
<rect width="256" height="256" fill="white"/>
</clipPath>
</defs>
</svg>
